<svg data-v-423bf9ae="" xmlns="http://www.w3.org/2000/svg" viewBox="0 0 582 90" class="iconLeft"><!----><!----><!----><g data-v-423bf9ae="" id="1c2e5ce3-479f-409f-9f80-46f014f66ccc" fill="#000000" transform="matrix(5.571030403879727,0,0,5.571030403879727,113.16762735607333,1.8523689335425146)"><path d="M5.61 13.13L5.61 13.13L5.61 13.13Q4.40 13.13 3.49 12.76L3.49 12.76L3.49 12.76Q2.58 12.39 1.99 11.72L1.99 11.72L1.99 11.72Q1.39 11.04 1.09 10.09L1.09 10.09L1.09 10.09Q0.80 9.14 0.80 7.98L0.80 7.98L0.80 7.98Q0.80 6.85 1.11 5.91L1.11 5.91L1.11 5.91Q1.42 4.96 2.04 4.29L2.04 4.29L2.04 4.29Q2.66 3.61 3.58 3.23L3.58 3.23L3.58 3.23Q4.49 2.86 5.70 2.86L5.70 2.86L5.70 2.86Q6.48 2.86 7.06 2.98L7.06 2.98L7.06 2.98Q7.64 3.10 8.02 3.31L8.02 3.31L8.02 3.31Q8.41 3.52 8.60 3.81L8.60 3.81L8.60 3.81Q8.79 4.09 8.79 4.43L8.79 4.43L8.79 4.43Q8.79 4.66 8.69 4.84L8.69 4.84L8.69 4.84Q8.59 5.02 8.41 5.14L8.41 5.14L8.41 5.14Q8.24 5.27 8.00 5.34L8.00 5.34L8.00 5.34Q7.77 5.41 7.49 5.41L7.49 5.41L7.49 5.41Q7.49 5.08 7.40 4.76L7.40 4.76L7.40 4.76Q7.30 4.44 7.08 4.18L7.08 4.18L7.08 4.18Q6.86 3.92 6.51 3.76L6.51 3.76L6.51 3.76Q6.15 3.60 5.64 3.60L5.64 3.60L5.64 3.60Q4.75 3.60 4.13 3.89L4.13 3.89L4.13 3.89Q3.50 4.18 3.10 4.74L3.10 4.74L3.10 4.74Q2.71 5.30 2.53 6.11L2.53 6.11L2.53 6.11Q2.35 6.93 2.35 7.98L2.35 7.98L2.35 7.98Q2.35 9.03 2.54 9.84L2.54 9.84L2.54 9.84Q2.72 10.66 3.14 11.21L3.14 11.21L3.14 11.21Q3.55 11.76 4.22 12.05L4.22 12.05L4.22 12.05Q4.88 12.34 5.84 12.34L5.84 12.34L5.84 12.34Q6.24 12.34 6.62 12.30L6.62 12.30L6.62 12.30Q7 12.26 7.29 12.17L7.29 12.17L7.29 9.91L7.29 9.91Q7.29 9.60 7.20 9.42L7.20 9.42L7.20 9.42Q7.11 9.23 6.95 9.13L6.95 9.13L6.95 9.13Q6.79 9.03 6.59 9.00L6.59 9.00L6.59 9.00Q6.38 8.96 6.15 8.96L6.15 8.96L6.09 8.96L6.09 8.37L9.73 8.37L9.73 8.96L9.67 8.96L9.67 8.96Q9.47 8.96 9.30 9.00L9.30 9.00L9.30 9.00Q9.12 9.03 8.99 9.14L8.99 9.14L8.99 9.14Q8.86 9.24 8.78 9.44L8.78 9.44L8.78 9.44Q8.71 9.65 8.71 9.97L8.71 9.97L8.71 12.49L8.71 12.49Q8.00 12.82 7.26 12.97L7.26 12.97L7.26 12.97Q6.51 13.13 5.61 13.13ZM10.18 12.41L10.36 12.41L10.36 12.41Q10.60 12.41 10.80 12.37L10.80 12.37L10.80 12.37Q11.01 12.34 11.17 12.23L11.17 12.23L11.17 12.23Q11.32 12.13 11.41 11.93L11.41 11.93L11.41 11.93Q11.50 11.73 11.50 11.40L11.50 11.40L11.50 3.90L11.50 3.90Q11.50 3.59 11.41 3.40L11.41 3.40L11.41 3.40Q11.32 3.21 11.16 3.11L11.16 3.11L11.16 3.11Q11.01 3.01 10.80 2.98L10.80 2.98L10.80 2.98Q10.59 2.95 10.36 2.95L10.36 2.95L10.18 2.95L10.18 2.36L12.82 2.36L12.82 11.40L12.82 11.40Q12.82 11.73 12.91 11.93L12.91 11.93L12.91 11.93Q13.00 12.13 13.16 12.23L13.16 12.23L13.16 12.23Q13.32 12.34 13.52 12.37L13.52 12.37L13.52 12.37Q13.73 12.41 13.97 12.41L13.97 12.41L14.15 12.41L14.15 13.00L10.18 13.00L10.18 12.41ZM16.39 10.96L16.39 10.96L16.39 10.96Q16.39 11.62 16.67 11.95L16.67 11.95L16.67 11.95Q16.95 12.27 17.53 12.27L17.53 12.27L17.53 12.27Q17.95 12.27 18.30 12.13L18.30 12.13L18.30 12.13Q18.64 12.00 18.88 11.74L18.88 11.74L18.88 11.74Q19.13 11.49 19.26 11.13L19.26 11.13L19.26 11.13Q19.39 10.77 19.39 10.32L19.39 10.32L19.39 9.19L18.49 9.23L18.49 9.23Q17.90 9.26 17.50 9.38L17.50 9.38L17.50 9.38Q17.10 9.50 16.85 9.71L16.85 9.71L16.85 9.71Q16.60 9.93 16.50 10.24L16.50 10.24L16.50 10.24Q16.39 10.55 16.39 10.96ZM18.09 6.05L18.09 6.05L18.09 6.05Q17.68 6.05 17.44 6.16L17.44 6.16L17.44 6.16Q17.19 6.28 17.05 6.48L17.05 6.48L17.05 6.48Q16.91 6.69 16.86 6.97L16.86 6.97L16.86 6.97Q16.81 7.25 16.81 7.57L16.81 7.57L16.81 7.57Q16.23 7.57 15.92 7.38L15.92 7.38L15.92 7.38Q15.62 7.18 15.62 6.69L15.62 6.69L15.62 6.69Q15.62 6.33 15.82 6.08L15.82 6.08L15.82 6.08Q16.02 5.82 16.36 5.66L16.36 5.66L16.36 5.66Q16.71 5.50 17.17 5.43L17.17 5.43L17.17 5.43Q17.62 5.35 18.14 5.35L18.14 5.35L18.14 5.35Q18.79 5.35 19.26 5.48L19.26 5.48L19.26 5.48Q19.74 5.61 20.06 5.89L20.06 5.89L20.06 5.89Q20.38 6.18 20.55 6.64L20.55 6.64L20.55 6.64Q20.71 7.10 20.71 7.77L20.71 7.77L20.71 11.40L20.71 11.40Q20.71 11.70 20.75 11.89L20.75 11.89L20.75 11.89Q20.80 12.08 20.90 12.20L20.90 12.20L20.90 12.20Q21.01 12.31 21.17 12.36L21.17 12.36L21.17 12.36Q21.34 12.41 21.57 12.41L21.57 12.41L21.62 12.41L21.62 13.00L19.72 13.00L19.50 11.79L19.39 11.79L19.39 11.79Q19.17 12.09 18.96 12.33L18.96 12.33L18.96 12.33Q18.76 12.58 18.51 12.76L18.51 12.76L18.51 12.76Q18.27 12.93 17.95 13.03L17.95 13.03L17.95 13.03Q17.64 13.13 17.21 13.13L17.21 13.13L17.21 13.13Q16.74 13.13 16.34 13.00L16.34 13.00L16.34 13.00Q15.94 12.87 15.65 12.59L15.65 12.59L15.65 12.59Q15.36 12.31 15.20 11.89L15.20 11.89L15.20 11.89Q15.03 11.47 15.03 10.90L15.03 10.90L15.03 10.90Q15.03 9.78 15.83 9.24L15.83 9.24L15.83 9.24Q16.62 8.70 18.22 8.65L18.22 8.65L19.39 8.61L19.39 7.77L19.39 7.77Q19.39 7.40 19.35 7.08L19.35 7.08L19.35 7.08Q19.30 6.76 19.17 6.53L19.17 6.53L19.17 6.53Q19.03 6.30 18.77 6.18L18.77 6.18L18.77 6.18Q18.52 6.05 18.09 6.05ZM25.16 13.13L25.16 13.13L25.16 13.13Q24.63 13.13 24.20 13.04L24.20 13.04L24.20 13.04Q23.78 12.95 23.47 12.76L23.47 12.76L23.47 12.76Q23.17 12.57 23.01 12.29L23.01 12.29L23.01 12.29Q22.85 12.02 22.85 11.65L22.85 11.65L22.85 11.65Q22.85 11.37 22.94 11.18L22.94 11.18L22.94 11.18Q23.03 10.99 23.16 10.88L23.16 10.88L23.16 10.88Q23.30 10.77 23.45 10.73L23.45 10.73L23.45 10.73Q23.60 10.68 23.73 10.68L23.73 10.68L23.73 10.68Q23.73 11.05 23.80 11.38L23.80 11.38L23.80 11.38Q23.88 11.70 24.06 11.94L24.06 11.94L24.06 11.94Q24.23 12.18 24.52 12.32L24.52 12.32L24.52 12.32Q24.81 12.46 25.24 12.46L25.24 12.46L25.24 12.46Q25.61 12.46 25.90 12.37L25.90 12.37L25.90 12.37Q26.19 12.28 26.38 12.11L26.38 12.11L26.38 12.11Q26.58 11.94 26.68 11.71L26.68 11.71L26.68 11.71Q26.78 11.47 26.78 11.19L26.78 11.19L26.78 11.19Q26.78 10.93 26.70 10.74L26.70 10.74L26.70 10.74Q26.63 10.55 26.43 10.39L26.43 10.39L26.43 10.39Q26.24 10.23 25.90 10.06L25.90 10.06L25.90 10.06Q25.57 9.88 25.06 9.67L25.06 9.67L25.06 9.67Q24.52 9.43 24.12 9.20L24.12 9.20L24.12 9.20Q23.72 8.98 23.46 8.72L23.46 8.72L23.46 8.72Q23.20 8.46 23.07 8.13L23.07 8.13L23.07 8.13Q22.94 7.80 22.94 7.34L22.94 7.34L22.94 7.34Q22.94 6.86 23.13 6.49L23.13 6.49L23.13 6.49Q23.32 6.13 23.67 5.88L23.67 5.88L23.67 5.88Q24.01 5.63 24.50 5.50L24.50 5.50L24.50 5.50Q24.99 5.37 25.58 5.37L25.58 5.37L25.58 5.37Q26.08 5.37 26.46 5.47L26.46 5.47L26.46 5.47Q26.84 5.57 27.10 5.75L27.10 5.75L27.10 5.75Q27.36 5.92 27.49 6.16L27.49 6.16L27.49 6.16Q27.62 6.39 27.62 6.65L27.62 6.65L27.62 6.65Q27.62 7.03 27.36 7.26L27.36 7.26L27.36 7.26Q27.10 7.49 26.61 7.49L26.61 7.49L26.61 7.49Q26.61 6.79 26.32 6.40L26.32 6.40L26.32 6.40Q26.03 6.01 25.41 6.01L25.41 6.01L25.41 6.01Q25.05 6.01 24.80 6.09L24.80 6.09L24.80 6.09Q24.55 6.17 24.39 6.32L24.39 6.32L24.39 6.32Q24.23 6.47 24.15 6.68L24.15 6.68L24.15 6.68Q24.08 6.88 24.08 7.13L24.08 7.13L24.08 7.13Q24.08 7.40 24.17 7.59L24.17 7.59L24.17 7.59Q24.27 7.79 24.48 7.95L24.48 7.95L24.48 7.95Q24.68 8.11 25.02 8.27L25.02 8.27L25.02 8.27Q25.35 8.42 25.81 8.61L25.81 8.61L25.81 8.61Q26.37 8.85 26.76 9.07L26.76 9.07L26.76 9.07Q27.16 9.30 27.42 9.56L27.42 9.56L27.42 9.56Q27.67 9.83 27.79 10.17L27.79 10.17L27.79 10.17Q27.92 10.50 27.92 10.94L27.92 10.94L27.92 10.94Q27.92 11.48 27.72 11.89L27.72 11.89L27.72 11.89Q27.52 12.30 27.16 12.58L27.16 12.58L27.16 12.58Q26.80 12.86 26.29 13.00L26.29 13.00L26.29 13.00Q25.78 13.13 25.16 13.13ZM31.47 13.13L31.47 13.13L31.47 13.13Q30.95 13.13 30.52 13.04L30.52 13.04L30.52 13.04Q30.09 12.95 29.79 12.76L29.79 12.76L29.79 12.76Q29.49 12.57 29.33 12.29L29.33 12.29L29.33 12.29Q29.16 12.02 29.16 11.65L29.16 11.65L29.16 11.65Q29.16 11.37 29.25 11.18L29.25 11.18L29.25 11.18Q29.35 10.99 29.48 10.88L29.48 10.88L29.48 10.88Q29.61 10.77 29.77 10.73L29.77 10.73L29.77 10.73Q29.92 10.68 30.04 10.68L30.04 10.68L30.04 10.68Q30.04 11.05 30.12 11.38L30.12 11.38L30.12 11.38Q30.19 11.70 30.37 11.94L30.37 11.94L30.37 11.94Q30.55 12.18 30.84 12.32L30.84 12.32L30.84 12.32Q31.13 12.46 31.55 12.46L31.55 12.46L31.55 12.46Q31.93 12.46 32.22 12.37L32.22 12.37L32.22 12.37Q32.50 12.28 32.70 12.11L32.70 12.11L32.70 12.11Q32.89 11.94 33.00 11.71L33.00 11.71L33.00 11.71Q33.10 11.47 33.10 11.19L33.10 11.19L33.10 11.19Q33.10 10.93 33.02 10.74L33.02 10.74L33.02 10.74Q32.94 10.55 32.75 10.39L32.75 10.39L32.75 10.39Q32.55 10.23 32.22 10.06L32.22 10.06L32.22 10.06Q31.88 9.88 31.38 9.67L31.38 9.67L31.38 9.67Q30.84 9.43 30.44 9.20L30.44 9.20L30.44 9.20Q30.04 8.98 29.78 8.72L29.78 8.72L29.78 8.72Q29.52 8.46 29.39 8.13L29.39 8.13L29.39 8.13Q29.26 7.80 29.26 7.34L29.26 7.34L29.26 7.34Q29.26 6.86 29.45 6.49L29.45 6.49L29.45 6.49Q29.63 6.13 29.98 5.88L29.98 5.88L29.98 5.88Q30.33 5.63 30.82 5.50L30.82 5.50L30.82 5.50Q31.30 5.37 31.90 5.37L31.90 5.37L31.90 5.37Q32.40 5.37 32.78 5.47L32.78 5.47L32.78 5.47Q33.16 5.57 33.42 5.75L33.42 5.75L33.42 5.75Q33.68 5.92 33.81 6.16L33.81 6.16L33.81 6.16Q33.94 6.39 33.94 6.65L33.94 6.65L33.94 6.65Q33.94 7.03 33.68 7.26L33.68 7.26L33.68 7.26Q33.41 7.49 32.93 7.49L32.93 7.49L32.93 7.49Q32.93 6.79 32.64 6.40L32.64 6.40L32.64 6.40Q32.35 6.01 31.73 6.01L31.73 6.01L31.73 6.01Q31.37 6.01 31.12 6.09L31.12 6.09L31.12 6.09Q30.86 6.17 30.70 6.32L30.70 6.32L30.70 6.32Q30.54 6.47 30.47 6.68L30.47 6.68L30.47 6.68Q30.39 6.88 30.39 7.13L30.39 7.13L30.39 7.13Q30.39 7.40 30.49 7.59L30.49 7.59L30.49 7.59Q30.58 7.79 30.79 7.95L30.79 7.95L30.79 7.95Q31.00 8.11 31.33 8.27L31.33 8.27L31.33 8.27Q31.66 8.42 32.13 8.61L32.13 8.61L32.13 8.61Q32.68 8.85 33.08 9.07L33.08 9.07L33.08 9.07Q33.48 9.30 33.73 9.56L33.73 9.56L33.73 9.56Q33.99 9.83 34.11 10.17L34.11 10.17L34.11 10.17Q34.23 10.50 34.23 10.94L34.23 10.94L34.23 10.94Q34.23 11.48 34.04 11.89L34.04 11.89L34.04 11.89Q33.84 12.30 33.48 12.58L33.48 12.58L33.48 12.58Q33.11 12.86 32.60 13.00L32.60 13.00L32.60 13.00Q32.09 13.13 31.47 13.13ZM49.05 13.00L44.98 13.00L44.98 12.41L45.17 12.41L45.17 12.41Q45.40 12.41 45.61 12.37L45.61 12.37L45.61 12.37Q45.82 12.34 45.98 12.23L45.98 12.23L45.98 12.23Q46.13 12.13 46.22 11.93L46.22 11.93L46.22 11.93Q46.31 11.73 46.31 11.40L46.31 11.40L46.31 8.12L41.76 8.12L41.76 11.40L41.76 11.40Q41.76 11.73 41.85 11.93L41.85 11.93L41.85 11.93Q41.95 12.13 42.10 12.23L42.10 12.23L42.10 12.23Q42.25 12.34 42.46 12.37L42.46 12.37L42.46 12.37Q42.68 12.41 42.91 12.41L42.91 12.41L43.09 12.41L43.09 13.00L39.02 13.00L39.02 12.41L39.20 12.41L39.20 12.41Q39.44 12.41 39.65 12.37L39.65 12.37L39.65 12.37Q39.85 12.34 40.01 12.23L40.01 12.23L40.01 12.23Q40.17 12.13 40.26 11.93L40.26 11.93L40.26 11.93Q40.35 11.73 40.35 11.40L40.35 11.40L40.35 4.54L40.35 4.54Q40.35 4.23 40.25 4.04L40.25 4.04L40.25 4.04Q40.16 3.86 40.00 3.75L40.00 3.75L40.00 3.75Q39.85 3.65 39.64 3.62L39.64 3.62L39.64 3.62Q39.43 3.59 39.20 3.59L39.20 3.59L39.02 3.59L39.02 3.00L43.09 3.00L43.09 3.59L42.91 3.59L42.91 3.59Q42.68 3.59 42.46 3.62L42.46 3.62L42.46 3.62Q42.25 3.66 42.10 3.76L42.10 3.76L42.10 3.76Q41.95 3.87 41.85 4.07L41.85 4.07L41.85 4.07Q41.76 4.27 41.76 4.59L41.76 4.59L41.76 7.42L46.31 7.42L46.31 4.59L46.31 4.59Q46.31 4.27 46.22 4.07L46.22 4.07L46.22 4.07Q46.13 3.87 45.98 3.76L45.98 3.76L45.98 3.76Q45.82 3.66 45.61 3.62L45.61 3.62L45.61 3.62Q45.40 3.59 45.17 3.59L45.17 3.59L44.98 3.59L44.98 3.00L49.05 3.00L49.05 3.59L48.88 3.59L48.88 3.59Q48.64 3.59 48.43 3.62L48.43 3.62L48.43 3.62Q48.22 3.66 48.06 3.76L48.06 3.76L48.06 3.76Q47.91 3.87 47.82 4.07L47.82 4.07L47.82 4.07Q47.73 4.27 47.73 4.59L47.73 4.59L47.73 11.47L47.73 11.47Q47.73 11.78 47.82 11.97L47.82 11.97L47.82 11.97Q47.91 12.15 48.07 12.25L48.07 12.25L48.07 12.25Q48.23 12.35 48.44 12.38L48.44 12.38L48.44 12.38Q48.64 12.41 48.88 12.41L48.88 12.41L49.05 12.41L49.05 13.00ZM56.90 9.23L56.90 9.23L56.90 9.23Q56.90 11.20 56.06 12.17L56.06 12.17L56.06 12.17Q55.22 13.13 53.61 13.13L53.61 13.13L53.61 13.13Q52.85 13.13 52.25 12.89L52.25 12.89L52.25 12.89Q51.65 12.65 51.23 12.17L51.23 12.17L51.23 12.17Q50.80 11.68 50.58 10.95L50.58 10.95L50.58 10.95Q50.36 10.21 50.36 9.23L50.36 9.23L50.36 9.23Q50.36 7.27 51.19 6.31L51.19 6.31L51.19 6.31Q52.02 5.35 53.65 5.35L53.65 5.35L53.65 5.35Q54.41 5.35 55.01 5.59L55.01 5.59L55.01 5.59Q55.61 5.82 56.03 6.31L56.03 6.31L56.03 6.31Q56.45 6.79 56.67 7.52L56.67 7.52L56.67 7.52Q56.90 8.24 56.90 9.23ZM51.71 9.23L51.71 9.23L51.71 9.23Q51.71 10.01 51.82 10.60L51.82 10.60L51.82 10.60Q51.92 11.20 52.15 11.60L52.15 11.60L52.15 11.60Q52.38 12.00 52.74 12.20L52.74 12.20L52.74 12.20Q53.11 12.41 53.63 12.41L53.63 12.41L53.63 12.41Q54.16 12.41 54.52 12.20L54.52 12.20L54.52 12.20Q54.89 12.00 55.11 11.60L55.11 11.60L55.11 11.60Q55.34 11.20 55.44 10.60L55.44 10.60L55.44 10.60Q55.54 10.01 55.54 9.23L55.54 9.23L55.54 9.23Q55.54 8.45 55.43 7.86L55.43 7.86L55.43 7.86Q55.33 7.27 55.10 6.88L55.10 6.88L55.10 6.88Q54.88 6.49 54.51 6.29L54.51 6.29L54.51 6.29Q54.15 6.09 53.62 6.09L53.62 6.09L53.62 6.09Q53.09 6.09 52.73 6.29L52.73 6.29L52.73 6.29Q52.37 6.49 52.14 6.88L52.14 6.88L52.14 6.88Q51.92 7.27 51.82 7.86L51.82 7.86L51.82 7.86Q51.71 8.45 51.71 9.23ZM61.78 12.41L61.82 12.41L61.82 13.00L58.06 13.00L58.06 12.41L58.24 12.41L58.24 12.41Q58.48 12.41 58.68 12.37L58.68 12.37L58.68 12.37Q58.88 12.34 59.02 12.23L59.02 12.23L59.02 12.23Q59.17 12.13 59.24 11.93L59.24 11.93L59.24 11.93Q59.32 11.73 59.32 11.40L59.32 11.40L59.32 7.03L59.32 7.03Q59.32 6.73 59.24 6.54L59.24 6.54L59.24 6.54Q59.16 6.35 59.01 6.25L59.01 6.25L59.01 6.25Q58.87 6.15 58.67 6.11L58.67 6.11L58.67 6.11Q58.47 6.08 58.24 6.08L58.24 6.08L58.20 6.08L58.20 5.49L60.40 5.49L60.58 6.62L60.65 6.62L60.65 6.62Q60.86 6.23 61.09 5.98L61.09 5.98L61.09 5.98Q61.33 5.74 61.59 5.60L61.59 5.60L61.59 5.60Q61.85 5.46 62.14 5.40L62.14 5.40L62.14 5.40Q62.43 5.35 62.76 5.35L62.76 5.35L62.76 5.35Q63.10 5.35 63.41 5.42L63.41 5.42L63.41 5.42Q63.72 5.49 63.98 5.64L63.98 5.64L63.98 5.64Q64.24 5.79 64.45 6.03L64.45 6.03L64.45 6.03Q64.66 6.28 64.79 6.62L64.79 6.62L64.91 6.62L64.91 6.62Q65.12 6.23 65.37 5.98L65.37 5.98L65.37 5.98Q65.61 5.74 65.89 5.60L65.89 5.60L65.89 5.60Q66.17 5.46 66.47 5.40L66.47 5.40L66.47 5.40Q66.77 5.35 67.10 5.35L67.10 5.35L67.10 5.35Q67.63 5.35 68.06 5.51L68.06 5.51L68.06 5.51Q68.48 5.67 68.78 6.01L68.78 6.01L68.78 6.01Q69.07 6.34 69.23 6.86L69.23 6.86L69.23 6.86Q69.38 7.38 69.38 8.09L69.38 8.09L69.38 11.40L69.38 11.40Q69.38 11.73 69.47 11.93L69.47 11.93L69.47 11.93Q69.55 12.13 69.69 12.23L69.69 12.23L69.69 12.23Q69.84 12.34 70.03 12.37L70.03 12.37L70.03 12.37Q70.23 12.41 70.46 12.41L70.46 12.41L70.51 12.41L70.51 13.00L68.07 13.00L68.07 8.16L68.07 8.16Q68.07 7.70 67.99 7.35L67.99 7.35L67.99 7.35Q67.92 6.99 67.74 6.75L67.74 6.75L67.74 6.75Q67.57 6.50 67.29 6.37L67.29 6.37L67.29 6.37Q67.01 6.25 66.60 6.25L66.60 6.25L66.60 6.25Q66.17 6.25 65.87 6.42L65.87 6.42L65.87 6.42Q65.57 6.58 65.39 6.87L65.39 6.87L65.39 6.87Q65.20 7.16 65.12 7.53L65.12 7.53L65.12 7.53Q65.04 7.91 65.04 8.33L65.04 8.33L65.04 11.40L65.04 11.40Q65.04 11.73 65.13 11.93L65.13 11.93L65.13 11.93Q65.21 12.13 65.35 12.23L65.35 12.23L65.35 12.23Q65.50 12.34 65.69 12.37L65.69 12.37L65.69 12.37Q65.89 12.41 66.12 12.41L66.12 12.41L66.17 12.41L66.17 13.00L63.73 13.00L63.73 8.16L63.73 8.16Q63.73 7.70 63.65 7.35L63.65 7.35L63.65 7.35Q63.57 6.99 63.40 6.75L63.40 6.75L63.40 6.75Q63.23 6.50 62.95 6.37L62.95 6.37L62.95 6.37Q62.67 6.25 62.26 6.25L62.26 6.25L62.26 6.25Q61.80 6.25 61.49 6.43L61.49 6.43L61.49 6.43Q61.18 6.62 60.99 6.93L60.99 6.93L60.99 6.93Q60.80 7.25 60.72 7.66L60.72 7.66L60.72 7.66Q60.63 8.07 60.63 8.52L60.63 8.52L60.63 11.47L60.63 11.47Q60.63 11.78 60.73 11.97L60.73 11.97L60.73 11.97Q60.82 12.15 60.98 12.25L60.98 12.25L60.98 12.25Q61.13 12.35 61.34 12.38L61.34 12.38L61.34 12.38Q61.55 12.41 61.78 12.41L61.78 12.41ZM74.74 6.10L74.74 6.10L74.74 6.10Q73.96 6.10 73.54 6.74L73.54 6.74L73.54 6.74Q73.12 7.37 73.05 8.59L73.05 8.59L76.27 8.59L76.27 8.59Q76.27 8.03 76.19 7.57L76.19 7.57L76.19 7.57Q76.10 7.12 75.93 6.79L75.93 6.79L75.93 6.79Q75.75 6.46 75.46 6.28L75.46 6.28L75.46 6.28Q75.17 6.10 74.74 6.10ZM74.92 13.13L74.92 13.13L74.92 13.13Q74.16 13.13 73.55 12.88L73.55 12.88L73.55 12.88Q72.95 12.62 72.53 12.13L72.53 12.13L72.53 12.13Q72.11 11.63 71.89 10.92L71.89 10.92L71.89 10.92Q71.67 10.21 71.67 9.30L71.67 9.30L71.67 9.30Q71.67 7.33 72.47 6.34L72.47 6.34L72.47 6.34Q73.28 5.35 74.77 5.35L74.77 5.35L74.77 5.35Q75.45 5.35 75.99 5.56L75.99 5.56L75.99 5.56Q76.53 5.78 76.90 6.20L76.90 6.20L76.90 6.20Q77.28 6.62 77.48 7.24L77.48 7.24L77.48 7.24Q77.68 7.87 77.68 8.70L77.68 8.70L77.68 9.34L73.02 9.34L73.02 9.34Q73.04 10.10 73.18 10.65L73.18 10.65L73.18 10.65Q73.32 11.20 73.58 11.56L73.58 11.56L73.58 11.56Q73.84 11.92 74.22 12.08L74.22 12.08L74.22 12.08Q74.61 12.25 75.11 12.25L75.11 12.25L75.11 12.25Q75.47 12.25 75.78 12.17L75.78 12.17L75.78 12.17Q76.09 12.09 76.34 11.95L76.34 11.95L76.34 11.95Q76.60 11.81 76.79 11.64L76.79 11.64L76.79 11.64Q76.99 11.46 77.11 11.27L77.11 11.27L77.11 11.27Q77.21 11.31 77.29 11.44L77.29 11.44L77.29 11.44Q77.38 11.57 77.38 11.75L77.38 11.75L77.38 11.75Q77.38 11.96 77.23 12.21L77.23 12.21L77.23 12.21Q77.08 12.45 76.77 12.65L76.77 12.65L76.77 12.65Q76.46 12.86 76.00 13.00L76.00 13.00L76.00 13.00Q75.54 13.13 74.92 13.13ZM81.33 13.13L81.33 13.13L81.33 13.13Q80.80 13.13 80.37 13.04L80.37 13.04L80.37 13.04Q79.95 12.95 79.65 12.76L79.65 12.76L79.65 12.76Q79.34 12.57 79.18 12.29L79.18 12.29L79.18 12.29Q79.02 12.02 79.02 11.65L79.02 11.65L79.02 11.65Q79.02 11.37 79.11 11.18L79.11 11.18L79.11 11.18Q79.20 10.99 79.33 10.88L79.33 10.88L79.33 10.88Q79.47 10.77 79.62 10.73L79.62 10.73L79.62 10.73Q79.78 10.68 79.90 10.68L79.90 10.68L79.90 10.68Q79.90 11.05 79.97 11.38L79.97 11.38L79.97 11.38Q80.05 11.70 80.23 11.94L80.23 11.94L80.23 11.94Q80.40 12.18 80.69 12.32L80.69 12.32L80.69 12.32Q80.99 12.46 81.41 12.46L81.41 12.46L81.41 12.46Q81.79 12.46 82.07 12.37L82.07 12.37L82.07 12.37Q82.36 12.28 82.55 12.11L82.55 12.11L82.55 12.11Q82.75 11.94 82.85 11.71L82.85 11.71L82.85 11.71Q82.95 11.47 82.95 11.19L82.95 11.19L82.95 11.19Q82.95 10.93 82.88 10.74L82.88 10.74L82.88 10.74Q82.80 10.55 82.60 10.39L82.60 10.39L82.60 10.39Q82.41 10.23 82.07 10.06L82.07 10.06L82.07 10.06Q81.74 9.88 81.23 9.67L81.23 9.67L81.23 9.67Q80.69 9.43 80.29 9.20L80.29 9.20L80.29 9.20Q79.89 8.98 79.63 8.72L79.63 8.72L79.63 8.72Q79.37 8.46 79.24 8.13L79.24 8.13L79.24 8.13Q79.11 7.80 79.11 7.34L79.11 7.34L79.11 7.34Q79.11 6.86 79.30 6.49L79.30 6.49L79.30 6.49Q79.49 6.13 79.84 5.88L79.84 5.88L79.84 5.88Q80.19 5.63 80.67 5.50L80.67 5.50L80.67 5.50Q81.16 5.37 81.75 5.37L81.75 5.37L81.75 5.37Q82.25 5.37 82.63 5.47L82.63 5.47L82.63 5.47Q83.02 5.57 83.28 5.75L83.28 5.75L83.28 5.75Q83.54 5.92 83.67 6.16L83.67 6.16L83.67 6.16Q83.79 6.39 83.79 6.65L83.79 6.65L83.79 6.65Q83.79 7.03 83.53 7.26L83.53 7.26L83.53 7.26Q83.27 7.49 82.78 7.49L82.78 7.49L82.78 7.49Q82.78 6.79 82.49 6.40L82.49 6.40L82.49 6.40Q82.20 6.01 81.58 6.01L81.58 6.01L81.58 6.01Q81.22 6.01 80.97 6.09L80.97 6.09L80.97 6.09Q80.72 6.17 80.56 6.32L80.56 6.32L80.56 6.32Q80.40 6.47 80.32 6.68L80.32 6.68L80.32 6.68Q80.25 6.88 80.25 7.13L80.25 7.13L80.25 7.13Q80.25 7.40 80.34 7.59L80.34 7.59L80.34 7.59Q80.44 7.79 80.65 7.95L80.65 7.95L80.65 7.95Q80.86 8.11 81.19 8.27L81.19 8.27L81.19 8.27Q81.52 8.42 81.98 8.61L81.98 8.61L81.98 8.61Q82.54 8.85 82.93 9.07L82.93 9.07L82.93 9.07Q83.33 9.30 83.59 9.56L83.59 9.56L83.59 9.56Q83.84 9.83 83.97 10.17L83.97 10.17L83.97 10.17Q84.09 10.50 84.09 10.94L84.09 10.94L84.09 10.94Q84.09 11.48 83.89 11.89L83.89 11.89L83.89 11.89Q83.69 12.30 83.33 12.58L83.33 12.58L83.33 12.58Q82.97 12.86 82.46 13.00L82.46 13.00L82.46 13.00Q81.95 13.13 81.33 13.13Z"></path></g><defs data-v-423bf9ae=""><linearGradient data-v-423bf9ae="" gradientTransform="rotate(25)" id="68d317c0-04ec-4511-8313-e5b154ea8a9f" x1="0%" y1="0%" x2="100%" y2="0%"><stop data-v-423bf9ae="" offset="0%" style="stop-color: rgb(65, 226, 150); stop-opacity: 1;"></stop><stop data-v-423bf9ae="" offset="100%" style="stop-color: rgb(0, 196, 238); stop-opacity: 1;"></stop></linearGradient></defs><g data-v-423bf9ae="" id="dafe43a6-0950-4589-bd04-b476dc241375" transform="matrix(1.3517965924560993,0,0,1.3517965924560993,-13.562485699724377,-23.072336713701958)" stroke="none" fill="url(#68d317c0-04ec-4511-8313-e5b154ea8a9f)"><path d="M46.769 20.261c.547 0 1.095.181 1.513.542l12.837 11.105c.306.264.59.39.827.39.413 0 .686-.381.686-1.082v-2.679a2 2 0 0 1 2-2h4.995a2 2 0 0 1 2 2v10.46c0 1.104.677 2.586 1.513 3.309l6.235 5.394c.836.723.617 1.309-.487 1.309h-5.261c-1.104 0-2 .793-2 1.771V78.84a2 2 0 0 1-2 2H23.912a2 2 0 0 1-2-2V51.01a2 2 0 0 0-2-2h-5.261c-1.104 0-1.323-.586-.487-1.309l31.093-26.897a2.304 2.304 0 0 1 1.512-.543m0-3a5.31 5.31 0 0 0-3.475 1.272L12.201 45.432c-2.044 1.767-1.537 3.692-1.333 4.24.204.549 1.08 2.337 3.783 2.337h4.261v26.83c0 2.757 2.243 5 5 5h45.715c2.757 0 5-2.243 5-5V52.009h4.261c2.703 0 3.579-1.788 3.783-2.337.204-.548.711-2.474-1.334-4.241l-6.234-5.394c-.19-.18-.464-.779-.476-1.046V28.537c0-2.757-2.243-5-5-5h-4.995a5.01 5.01 0 0 0-4.723 3.357l-9.664-8.36a5.31 5.31 0 0 0-3.476-1.273z"></path></g><!----></svg>